<svg width="22" height="22" viewBox="0 0 22 22" fill="none" xmlns="http://www.w3.org/2000/svg">
<path d="M5.5 19.25C6.51252 19.25 7.33333 18.4292 7.33333 17.4167C7.33333 16.4042 6.51252 15.5834 5.5 15.5834C4.48748 15.5834 3.66666 16.4042 3.66666 17.4167C3.66666 18.4292 4.48748 19.25 5.5 19.25Z" stroke="#64748B" stroke-width="1.5" stroke-linecap="round" stroke-linejoin="round"/>
<path d="M15.5833 19.25C16.5959 19.25 17.4167 18.4292 17.4167 17.4167C17.4167 16.4042 16.5959 15.5834 15.5833 15.5834C14.5708 15.5834 13.75 16.4042 13.75 17.4167C13.75 18.4292 14.5708 19.25 15.5833 19.25Z" stroke="#64748B" stroke-width="1.5" stroke-linecap="round" stroke-linejoin="round"/>
<path d="M15.5833 15.5833H5.5V2.75H3.66666" stroke="#64748B" stroke-width="1.5" stroke-linecap="round" stroke-linejoin="round"/>
<path d="M18.3333 5.5L17.4167 11.9167H5.5" stroke="#64748B" stroke-width="1.5" stroke-linecap="round" stroke-linejoin="round"/>
<path d="M9.16666 9.16663L14.6667 3.66663" stroke="#64748B" stroke-width="1.5" stroke-linecap="round" stroke-linejoin="round"/>
<path d="M9.625 4.58329C9.87813 4.58329 10.0833 4.37809 10.0833 4.12496C10.0833 3.87183 9.87813 3.66663 9.625 3.66663C9.37187 3.66663 9.16666 3.87183 9.16666 4.12496C9.16666 4.37809 9.37187 4.58329 9.625 4.58329Z" stroke="#64748B" stroke-width="1.5" stroke-linecap="round" stroke-linejoin="round"/>
<path d="M14.2083 9.16667C14.4615 9.16667 14.6667 8.96146 14.6667 8.70833C14.6667 8.4552 14.4615 8.25 14.2083 8.25C13.9552 8.25 13.75 8.4552 13.75 8.70833C13.75 8.96146 13.9552 9.16667 14.2083 9.16667Z" stroke="#64748B" stroke-width="1.5" stroke-linecap="round" stroke-linejoin="round"/>
</svg>
