<svg width="152" height="132" viewBox="0 0 152 132" fill="none" xmlns="http://www.w3.org/2000/svg">
<path d="M118.164 131.553L118.733 114.762L106.145 112.856L105.378 131.741" fill="white"/>
<path d="M105.378 132C105.311 131.997 105.248 131.969 105.203 131.92C105.157 131.872 105.132 131.807 105.134 131.741L105.901 112.851C105.902 112.815 105.91 112.779 105.926 112.747C105.942 112.715 105.965 112.686 105.993 112.663C106.02 112.64 106.051 112.624 106.086 112.615C106.12 112.606 106.156 112.605 106.191 112.612L118.784 114.518C118.845 114.528 118.9 114.56 118.94 114.607C118.979 114.655 118.999 114.715 118.997 114.777L118.428 131.548C118.427 131.581 118.419 131.614 118.405 131.644C118.391 131.675 118.371 131.702 118.347 131.725C118.322 131.747 118.293 131.765 118.262 131.776C118.231 131.788 118.197 131.793 118.164 131.792C118.131 131.79 118.098 131.783 118.068 131.769C118.037 131.755 118.01 131.735 117.987 131.71C117.965 131.686 117.947 131.657 117.935 131.626C117.924 131.594 117.919 131.561 117.92 131.528L118.474 114.991L106.384 113.161L105.632 131.761C105.628 131.826 105.599 131.887 105.552 131.931C105.505 131.976 105.442 132 105.378 132Z" fill="#1E293B"/>
<path d="M56.7323 124.301L71.1347 107.225L84.0126 110.376L67.6027 127.162" fill="white"/>
<path d="M67.6028 127.421C67.5358 127.42 67.4719 127.393 67.425 127.345C67.4013 127.322 67.3825 127.294 67.3697 127.264C67.3568 127.233 67.3502 127.2 67.3502 127.167C67.3502 127.134 67.3568 127.101 67.3697 127.071C67.3825 127.04 67.4013 127.012 67.425 126.989L83.5197 110.518L71.2263 107.51L56.9255 124.468C56.8805 124.519 56.8182 124.55 56.7511 124.555C56.6841 124.561 56.6174 124.541 56.5647 124.499C56.5135 124.455 56.4817 124.392 56.476 124.325C56.4703 124.257 56.4912 124.19 56.5342 124.138L70.9671 107.063C70.9974 107.026 71.0374 106.999 71.0824 106.985C71.1274 106.971 71.1755 106.969 71.2212 106.981L84.0991 110.127C84.1419 110.139 84.181 110.162 84.213 110.193C84.2449 110.224 84.2686 110.262 84.282 110.305C84.2939 110.348 84.2944 110.394 84.2838 110.437C84.2731 110.481 84.2515 110.521 84.2211 110.554L67.8112 127.325C67.786 127.355 67.7541 127.38 67.7181 127.397C67.682 127.413 67.6426 127.422 67.6028 127.421Z" fill="#1E293B"/>
<path d="M112.548 38.3383C112.548 38.3383 92.9723 43.7049 93.1603 44.4672C93.3484 45.2295 97.17 59.3474 97.17 59.3474L109.367 56.2982L112.548 38.3383Z" fill="#3B82F6"/>
<path d="M112.945 38.2213C112.945 38.2213 106.729 39.8882 102.918 42.0836C99.1063 44.2791 100.153 67.6767 100.153 67.6767L128.394 73.3686C128.394 73.3686 133.771 58.1733 133.405 51.2364C133.039 44.2994 128.75 34.4606 112.945 38.2213Z" fill="#FA6360"/>
<path d="M98.8827 56.2729C98.8509 56.2801 98.8179 56.2801 98.7862 56.2729C98.7227 56.2459 98.6723 56.1952 98.6457 56.1316C98.6191 56.068 98.6185 55.9965 98.6439 55.9324C100.489 51.3941 103.269 44.4724 103.345 43.9896C103.345 43.9558 103.353 43.9225 103.366 43.8915C103.38 43.8606 103.4 43.8327 103.425 43.8096C103.449 43.7864 103.478 43.7683 103.51 43.7565C103.541 43.7446 103.575 43.7392 103.609 43.7406C103.679 43.7432 103.745 43.7728 103.793 43.823C103.841 43.8732 103.868 43.9402 103.868 44.0099C103.868 44.447 100.555 52.6494 99.1267 56.1306C99.1041 56.1753 99.0691 56.2126 99.0258 56.2379C98.9825 56.2631 98.9328 56.2753 98.8827 56.2729Z" fill="#1E293B"/>
<path d="M114.673 35.3702L112.68 41.3569C112.68 41.3569 112.63 44.9143 116.578 44.6043C117.745 44.5 118.873 44.1376 119.882 43.5435C120.891 42.9493 121.756 42.1382 122.413 41.1688L124.079 30.4356C123.475 29.9086 123.091 29.1741 123.002 28.3774C122.915 27.781 122.932 27.1739 123.053 26.5834C123.238 25.7905 123.534 25.0276 123.932 24.3168C122.054 24.0238 120.332 23.1009 119.048 21.6996C118.743 21.3272 118.458 20.9387 118.194 20.5358C118.072 20.3478 115.567 21.5217 115.303 21.6539C114.012 22.2229 112.911 23.1507 112.132 24.327C111.615 25.3435 111.287 26.4457 111.166 27.5795C110.87 29.1376 110.72 30.7199 110.719 32.3058C110.749 35.3296 114.673 35.3702 114.673 35.3702Z" fill="white"/>
<path d="M116.085 44.8583C115.155 44.9029 114.244 44.584 113.544 43.969C112.859 43.2709 112.469 42.3351 112.457 41.3568C112.454 41.3332 112.454 41.3093 112.457 41.2857L114.352 35.5887C113.387 35.4972 110.515 35.0043 110.49 32.321C110.492 30.7231 110.644 29.1289 110.942 27.5591C111.074 26.3917 111.418 25.2582 111.959 24.2151C112.744 23.0011 113.863 22.0393 115.181 21.4454C118.103 20.0021 118.296 20.2969 118.367 20.429C118.367 20.429 118.875 21.2218 119.201 21.5674C120.448 22.9348 122.127 23.8319 123.957 24.1084C123.993 24.1151 124.026 24.1302 124.055 24.1524C124.084 24.1745 124.107 24.2032 124.122 24.2359C124.137 24.2686 124.145 24.3045 124.143 24.3407C124.142 24.3768 124.132 24.4122 124.115 24.4438C123.727 25.1354 123.438 25.8778 123.256 26.6494C123.144 27.2154 123.129 27.7961 123.21 28.3672C123.287 29.1039 123.639 29.7844 124.196 30.2729C124.231 30.2967 124.258 30.33 124.274 30.3687C124.29 30.4075 124.295 30.4501 124.288 30.4914L122.621 41.2247C122.616 41.2551 122.606 41.2844 122.59 41.3111C121.92 42.3185 121.03 43.1615 119.988 43.7775C118.947 44.3934 117.779 44.7663 116.573 44.8685C116.416 44.8583 116.248 44.8583 116.085 44.8583ZM112.904 41.3975C112.928 42.2339 113.263 43.0313 113.844 43.6336C114.216 43.9424 114.65 44.1683 115.116 44.2962C115.582 44.4242 116.07 44.4512 116.548 44.3755C117.669 44.2718 118.754 43.9241 119.727 43.357C120.699 42.7899 121.536 42.0171 122.179 41.0925L123.82 30.5321C123.232 29.9704 122.858 29.2209 122.763 28.4129C122.67 27.7985 122.684 27.1728 122.804 26.563C122.967 25.8548 123.224 25.1713 123.566 24.5302C121.751 24.1914 120.096 23.2709 118.85 21.9079C118.586 21.6081 118.194 21.0287 118.042 20.8051C117.133 21.116 116.245 21.4861 115.384 21.913C114.145 22.4699 113.088 23.3646 112.335 24.4947C111.828 25.4912 111.505 26.5704 111.379 27.6811C111.088 29.2243 110.938 30.7911 110.932 32.3616C110.963 35.1161 114.49 35.1872 114.652 35.1923C114.688 35.1925 114.724 35.2014 114.756 35.2182C114.787 35.235 114.815 35.2592 114.835 35.2889C114.857 35.3184 114.872 35.3526 114.878 35.3888C114.884 35.425 114.882 35.4622 114.871 35.4972L112.904 41.3975Z" fill="#1E293B"/>
<path d="M121.975 29.4752C122.168 29.0485 122.49 28.6929 122.895 28.4588C123.287 28.255 123.712 28.1208 124.15 28.0624C124.386 28.0066 124.631 28.0066 124.867 28.0624C125.03 28.115 125.18 28.1996 125.309 28.3114C125.639 28.5414 125.875 28.8823 125.975 29.2719C126.016 29.5944 125.98 29.922 125.868 30.2273C125.773 30.5663 125.633 30.891 125.451 31.1929C125.264 31.4905 125.02 31.7479 124.732 31.9502C124.445 32.1525 124.12 32.2956 123.777 32.3713C123.433 32.4469 123.079 32.4536 122.733 32.3909C122.387 32.3282 122.057 32.1974 121.762 32.0061" fill="white"/>
<path d="M123.21 32.5958C122.657 32.5963 122.116 32.4375 121.65 32.1384C121.605 32.1093 121.574 32.0636 121.562 32.0112C121.551 31.9589 121.56 31.9042 121.589 31.8589C121.603 31.8361 121.622 31.8164 121.643 31.8009C121.665 31.7855 121.69 31.7745 121.716 31.7688C121.742 31.7631 121.769 31.7628 121.795 31.7678C121.822 31.7728 121.847 31.7831 121.869 31.798C122.142 31.9742 122.448 32.0945 122.768 32.1521C123.088 32.2096 123.416 32.2033 123.734 32.1334C124.364 31.983 124.911 31.5929 125.258 31.0458C125.431 30.7583 125.564 30.4489 125.655 30.126C125.753 29.8529 125.788 29.5608 125.756 29.2722C125.664 28.9311 125.455 28.6329 125.167 28.4286C125.055 28.3358 124.928 28.2635 124.791 28.2151C124.585 28.1699 124.372 28.1699 124.166 28.2151C123.751 28.2727 123.349 28.3998 122.977 28.5912C122.605 28.8068 122.313 29.1365 122.143 29.5314C122.133 29.556 122.118 29.5784 122.1 29.5972C122.081 29.616 122.058 29.6308 122.034 29.6408C122.009 29.6507 121.983 29.6556 121.956 29.6552C121.929 29.6547 121.903 29.6489 121.879 29.6381C121.854 29.6287 121.831 29.6142 121.812 29.5955C121.792 29.5768 121.777 29.5543 121.767 29.5295C121.757 29.5046 121.753 29.4779 121.753 29.4511C121.754 29.4243 121.761 29.398 121.772 29.3738C121.978 28.8951 122.335 28.497 122.789 28.2405C123.201 28.027 123.645 27.8844 124.105 27.8187C124.372 27.7577 124.65 27.7577 124.918 27.8187C125.102 27.8819 125.274 27.9764 125.426 28.0982C125.794 28.3607 126.056 28.7467 126.163 29.1858C126.212 29.5386 126.174 29.8982 126.051 30.2327C125.951 30.5894 125.804 30.9312 125.614 31.2491C125.412 31.5694 125.149 31.8465 124.839 32.0646C124.529 32.2826 124.18 32.4373 123.81 32.5196C123.614 32.5669 123.412 32.5924 123.21 32.5958Z" fill="#1E293B"/>
<path d="M113.656 38.5313C115.106 38.6776 116.562 38.3186 117.778 37.5149C119.709 36.1681 119.811 34.4657 119.811 34.4657C118.193 35.1661 116.433 35.476 114.673 35.3703L113.656 38.5313Z" fill="#1E293B"/>
<path d="M114.236 38.7855C114.028 38.7879 113.821 38.776 113.616 38.7499C113.583 38.7455 113.552 38.7341 113.525 38.7165C113.497 38.6988 113.474 38.6753 113.457 38.6477C113.439 38.6201 113.428 38.589 113.424 38.5566C113.42 38.5243 113.423 38.4913 113.433 38.4602L114.449 35.3043C114.465 35.2579 114.495 35.2177 114.535 35.1894C114.575 35.1611 114.623 35.1462 114.673 35.1468C116.394 35.2307 118.111 34.9141 119.689 34.2218C119.723 34.2031 119.761 34.1934 119.8 34.1934C119.839 34.1934 119.878 34.2031 119.912 34.2218C119.945 34.2435 119.971 34.273 119.989 34.3077C120.007 34.3424 120.015 34.3811 120.014 34.42C120.014 34.4963 119.892 36.2699 117.895 37.6674C116.816 38.4011 115.54 38.7909 114.236 38.7855ZM113.946 38.3281C115.253 38.394 116.546 38.0376 117.635 37.3117C118.537 36.7257 119.197 35.8344 119.495 34.8012C118.008 35.3807 116.42 35.6554 114.825 35.6092L113.946 38.3281Z" fill="#1E293B"/>
<path d="M117.32 25.0997C117.32 25.0997 114.779 27.6407 115.135 28.2709C115.491 28.9011 116.888 28.7791 116.888 28.7791" fill="white"/>
<path d="M116.705 29.0231C116.268 29.0231 115.293 28.9571 114.947 28.3879C114.53 27.7069 116.36 25.7503 117.168 24.9423C117.189 24.9209 117.214 24.9039 117.241 24.8923C117.269 24.8808 117.298 24.8748 117.328 24.8748C117.358 24.8748 117.387 24.8808 117.415 24.8923C117.442 24.9039 117.467 24.9209 117.488 24.9423C117.53 24.985 117.553 25.0425 117.553 25.1024C117.553 25.1622 117.53 25.2197 117.488 25.2624C116.197 26.5634 115.181 27.8898 115.328 28.1541C115.567 28.5556 116.548 28.5861 116.853 28.5708C116.912 28.5693 116.97 28.5906 117.014 28.6302C117.059 28.6699 117.086 28.725 117.092 28.7843C117.093 28.8137 117.089 28.843 117.079 28.8707C117.069 28.8983 117.053 28.9237 117.033 28.9454C117.014 28.9672 116.99 28.9847 116.963 28.9972C116.936 29.0097 116.908 29.0168 116.878 29.0181L116.705 29.0231Z" fill="#1E293B"/>
<path d="M113.422 30.268L118.367 30.202C118.367 30.202 118.144 33.5561 115.267 33.7594C112.391 33.9627 113.422 30.268 113.422 30.268Z" fill="#1E293B"/>
<path d="M118.489 25.1047C118.554 24.9649 118.654 24.8445 118.78 24.7553C118.905 24.6662 119.052 24.6115 119.206 24.5965C119.775 24.505 120.065 25.1708 120.065 25.1708" fill="white"/>
<path d="M120.065 25.3742C120.021 25.375 119.978 25.3629 119.941 25.3394C119.903 25.3159 119.874 25.2821 119.856 25.242C119.856 25.242 119.633 24.7338 119.241 24.7999C119.127 24.8111 119.017 24.8516 118.923 24.9175C118.828 24.9833 118.753 25.0723 118.703 25.1759C118.682 25.2322 118.64 25.2781 118.586 25.3038C118.532 25.3295 118.47 25.3328 118.413 25.3132C118.358 25.2935 118.313 25.2534 118.288 25.2012C118.262 25.149 118.258 25.0889 118.276 25.0337C118.349 24.8514 118.471 24.6924 118.627 24.5735C118.784 24.4545 118.97 24.38 119.165 24.3577C119.897 24.2358 120.253 25.0286 120.268 25.0641C120.28 25.0912 120.286 25.1202 120.286 25.1497C120.287 25.1792 120.282 25.2084 120.271 25.2358C120.26 25.2632 120.244 25.2882 120.223 25.3093C120.203 25.3304 120.178 25.3473 120.151 25.3589L120.065 25.3742Z" fill="#1E293B"/>
<path d="M113.91 24.6725C113.975 24.5327 114.075 24.4123 114.201 24.3231C114.327 24.234 114.473 24.1792 114.627 24.1643C115.196 24.0677 115.486 24.7386 115.486 24.7386" fill="white"/>
<path d="M115.486 24.9469C115.441 24.9474 115.398 24.9345 115.361 24.9101C115.323 24.8857 115.294 24.8507 115.277 24.8097C115.277 24.8097 115.054 24.3015 114.662 24.3727C114.548 24.3829 114.437 24.423 114.343 24.489C114.248 24.555 114.173 24.6445 114.124 24.7487C114.103 24.805 114.061 24.8509 114.007 24.8766C113.953 24.9023 113.891 24.9056 113.834 24.886C113.779 24.8653 113.734 24.8242 113.708 24.7712C113.683 24.7182 113.679 24.6573 113.697 24.6014C113.771 24.4197 113.893 24.2613 114.05 24.1425C114.206 24.0237 114.391 23.9487 114.586 23.9255C115.318 23.8035 115.674 24.6014 115.689 24.6319C115.701 24.6588 115.708 24.6879 115.709 24.7176C115.71 24.7473 115.705 24.7768 115.694 24.8044C115.683 24.8319 115.666 24.857 115.646 24.878C115.625 24.899 115.6 24.9156 115.572 24.9266C115.545 24.94 115.516 24.947 115.486 24.9469Z" fill="#1E293B"/>
<path d="M127.83 73.0079L123.785 126.984L56.5394 113.237L101.241 67.377L127.83 73.0079Z" fill="#1E293B"/>
<path d="M98.8827 33.4136L19.908 46.576L54.6488 11.2661L98.8827 33.4136Z" fill="#1E293B"/>
<path d="M19.9081 46.8306C19.8579 46.8309 19.8088 46.8163 19.7669 46.7887C19.725 46.7612 19.6921 46.7218 19.6726 46.6756C19.653 46.6294 19.6476 46.5784 19.6569 46.5292C19.6663 46.4799 19.69 46.4344 19.7251 46.3986L54.4658 11.0836C54.5039 11.0459 54.5529 11.0212 54.6058 11.013C54.6587 11.0047 54.7129 11.0135 54.7606 11.0379L98.9742 33.1904C99.0236 33.2124 99.0641 33.2506 99.0891 33.2986C99.114 33.3466 99.1219 33.4016 99.1114 33.4547C99.1066 33.5075 99.0853 33.5574 99.0507 33.5975C99.0161 33.6376 98.9698 33.6658 98.9183 33.6783L19.9487 46.8255L19.9081 46.8306ZM54.7047 11.5766L20.6551 46.1953L98.0696 33.2921L54.7047 11.5766Z" fill="#1E293B"/>
<path d="M106.175 86.394L31.6779 99.7953L20.0096 47.0439L98.9436 33.8814L106.175 86.394Z" fill="#1E293B"/>
<path d="M31.683 100.049C31.6248 100.051 31.5681 100.032 31.5227 99.9953C31.4772 99.9591 31.4458 99.9081 31.4339 99.8512L19.7453 47.0947C19.7314 47.0282 19.7441 46.9588 19.7809 46.9016C19.8 46.8717 19.8254 46.8463 19.8552 46.827C19.885 46.8077 19.9185 46.7951 19.9536 46.7898L98.9182 33.6274C98.986 33.6169 99.0553 33.6333 99.1113 33.6731C99.1391 33.6935 99.1624 33.7193 99.1799 33.749C99.1973 33.7788 99.2086 33.8117 99.2129 33.8459L106.445 86.3585C106.45 86.3908 106.448 86.4239 106.441 86.4557C106.433 86.4876 106.419 86.5176 106.4 86.544C106.38 86.5704 106.356 86.5928 106.328 86.6098C106.3 86.6268 106.269 86.6381 106.236 86.6431L31.7236 100.044L31.683 100.049ZM20.3145 47.2472L31.8761 99.5057L105.891 86.1857L98.7301 34.1864L20.3145 47.2472Z" fill="#1E293B"/>
<path d="M37.934 82.3385C37.934 82.3385 24.2125 39.9849 17.6059 27.1071L91.158 7.07373L95.7318 72.6319L37.934 82.3385Z" fill="#FA6360"/>
<path d="M30.4889 34.5164C30.4324 34.5167 30.3774 34.4977 30.3331 34.4626C30.2887 34.4275 30.2577 34.3784 30.245 34.3233C30.2278 34.2586 30.2369 34.1898 30.2702 34.1317C30.3035 34.0737 30.3584 34.0311 30.4228 34.0133L84.5108 19.992C84.5782 19.9751 84.6496 19.9857 84.7091 20.0215C84.7687 20.0572 84.8116 20.1152 84.8285 20.1826C84.8453 20.25 84.8347 20.3213 84.799 20.3808C84.7632 20.4404 84.7053 20.4833 84.6379 20.5002L30.5499 34.5062L30.4889 34.5164Z" fill="white"/>
<path d="M32.7757 43.3845C32.7182 43.3855 32.6622 43.3662 32.6176 43.3299C32.5729 43.2937 32.5426 43.2428 32.5318 43.1863C32.5243 43.1539 32.5235 43.1204 32.5292 43.0876C32.5349 43.0549 32.5471 43.0236 32.5651 42.9957C32.5831 42.9677 32.6065 42.9437 32.634 42.9249C32.6614 42.9062 32.6923 42.8931 32.7249 42.8865L85.0952 31.1368C85.1626 31.1227 85.2328 31.1359 85.2905 31.1735C85.3482 31.2112 85.3885 31.2702 85.4026 31.3376C85.4168 31.405 85.4036 31.4752 85.366 31.5329C85.3283 31.5905 85.2693 31.6309 85.2019 31.645L32.852 43.3794L32.7757 43.3845Z" fill="white"/>
<path d="M37.263 51.6837C37.2042 51.6847 37.1469 51.6648 37.1013 51.6276C37.0557 51.5904 37.0248 51.5382 37.014 51.4804C37.0073 51.4477 37.0072 51.414 37.0135 51.3812C37.0198 51.3485 37.0326 51.3173 37.051 51.2894C37.0694 51.2616 37.0931 51.2376 37.1208 51.2189C37.1484 51.2003 37.1795 51.1872 37.2122 51.1806L87.2956 41.4536C87.328 41.4469 87.3613 41.4468 87.3938 41.4532C87.4262 41.4596 87.4571 41.4724 87.4845 41.4909C87.5119 41.5093 87.5354 41.533 87.5536 41.5607C87.5718 41.5883 87.5843 41.6193 87.5903 41.6518C87.5977 41.6845 87.5984 41.7184 87.5924 41.7514C87.5863 41.7845 87.5737 41.8159 87.5552 41.8439C87.5367 41.8719 87.5127 41.8959 87.4846 41.9144C87.4566 41.9329 87.4252 41.9456 87.3921 41.9516L37.3088 51.6786L37.263 51.6837Z" fill="white"/>
<path d="M39.6467 62.2747C39.5793 62.2801 39.5125 62.2585 39.461 62.2147C39.4096 62.1708 39.3776 62.1083 39.3722 62.0409C39.3668 61.9735 39.3884 61.9068 39.4323 61.8553C39.4761 61.8038 39.5386 61.7719 39.606 61.7665L87.1128 54.0367C87.1802 54.026 87.2491 54.0424 87.3044 54.0824C87.3596 54.1224 87.3968 54.1828 87.4075 54.2502C87.4183 54.3176 87.4019 54.3865 87.3619 54.4418C87.3218 54.4971 87.2615 54.5342 87.1941 54.5449L39.6873 62.2696L39.6467 62.2747Z" fill="white"/>
<path d="M64.6907 67.4482L20.0096 47.0439L31.6779 99.7953L106.175 86.394L98.9436 33.8814L64.6907 67.4482Z" fill="white"/>
<path d="M31.6829 100.049C31.6248 100.05 31.5681 100.031 31.5226 99.9951C31.4771 99.9589 31.4457 99.9079 31.4339 99.851L19.7452 47.0945C19.7351 47.0482 19.7381 47 19.7539 46.9553C19.7697 46.9106 19.7977 46.8713 19.8347 46.8417C19.8717 46.8121 19.9162 46.7934 19.9633 46.7878C20.0103 46.7822 20.058 46.7898 20.101 46.8099L64.6246 67.138L98.7656 33.6779C98.7992 33.6443 98.8416 33.6207 98.8879 33.6099C98.9342 33.5991 98.9826 33.6015 99.0276 33.6169C99.0726 33.6322 99.1124 33.6599 99.1424 33.6968C99.1725 33.7336 99.1916 33.7781 99.1976 33.8253L106.429 86.3379C106.434 86.3702 106.433 86.4033 106.425 86.4351C106.418 86.467 106.404 86.497 106.384 86.5234C106.365 86.5499 106.34 86.5722 106.312 86.5892C106.284 86.6062 106.253 86.6175 106.221 86.6225L31.7236 100.044L31.6829 100.049ZM20.3652 47.4858L31.876 99.5054L105.891 86.1854L98.7758 34.4148L64.8685 67.6309C64.8313 67.6665 64.7842 67.6899 64.7333 67.6981C64.6825 67.7062 64.6304 67.6988 64.5839 67.6767L20.3652 47.4858Z" fill="#1E293B"/>
<path d="M106.181 86.3938L31.6831 99.7951L64.6959 67.448L106.181 86.3938Z" fill="white"/>
<path d="M31.683 100.049C31.6359 100.05 31.5896 100.038 31.5492 100.013C31.5088 99.9891 31.476 99.9541 31.4543 99.9123C31.4297 99.8643 31.4214 99.8096 31.4305 99.7564C31.4397 99.7033 31.4659 99.6545 31.5051 99.6175L64.5383 67.2654C64.5755 67.2298 64.6227 67.2064 64.6735 67.1982C64.7243 67.1901 64.7764 67.1975 64.8229 67.2196L106.302 86.1603C106.352 86.1834 106.392 86.2213 106.419 86.2687C106.445 86.3161 106.456 86.3707 106.45 86.4246C106.443 86.4778 106.42 86.5276 106.384 86.5668C106.347 86.6061 106.299 86.6328 106.246 86.6431L31.7287 100.049H31.683ZM64.7467 67.7532L32.4504 99.399L105.332 86.2874L64.7467 67.7532Z" fill="#1E293B"/>
<path d="M106.181 86.3938L31.6831 99.7951L64.6959 67.448L106.181 86.3938Z" fill="white"/>
<path d="M31.683 100.049C31.6359 100.05 31.5896 100.038 31.5492 100.013C31.5088 99.9891 31.476 99.9541 31.4543 99.9123C31.4297 99.8643 31.4214 99.8096 31.4305 99.7564C31.4397 99.7033 31.4659 99.6545 31.5051 99.6175L64.5383 67.2654C64.5755 67.2298 64.6227 67.2064 64.6735 67.1982C64.7243 67.1901 64.7764 67.1975 64.8229 67.2196L106.302 86.1603C106.352 86.1834 106.392 86.2213 106.419 86.2687C106.445 86.3161 106.456 86.3707 106.45 86.4246C106.443 86.4778 106.42 86.5276 106.384 86.5668C106.347 86.6061 106.299 86.6328 106.246 86.6431L31.7287 100.049H31.683ZM64.7467 67.7532L32.4504 99.399L105.332 86.2874L64.7467 67.7532Z" fill="#1E293B"/>
<path d="M100.997 13.7057C100.997 13.7057 99.9143 17.7713 96.4941 17.8729C96.4941 17.8729 100.102 18.8893 100.86 22.274C101.196 21.3349 101.751 20.4896 102.479 19.8081C103.208 19.1267 104.088 18.6288 105.047 18.3557C104.065 17.9363 103.19 17.3002 102.489 16.4949C101.788 15.6896 101.277 14.7361 100.997 13.7057Z" fill="#E2E8F0"/>
<path d="M2.78153 44.5992C2.78153 44.5992 5.51058 48.5022 3.09153 51.5209C3.09153 51.5209 6.59305 49.1425 10.0692 50.9568C9.5037 49.9834 9.17874 48.889 9.12129 47.7647C9.06384 46.6403 9.27554 45.5185 9.73882 44.4925C9.73882 44.4925 6.76584 46.2915 2.78153 44.5992Z" fill="#E2E8F0"/>
<path d="M27.2618 12.7757C27.2618 12.7757 27.8361 19.5754 22.688 21.5727C22.688 21.5727 28.7305 21.1458 31.734 25.8924C31.734 25.8924 31.5205 20.6884 35.9724 17.6544C35.9317 17.6544 30.9615 17.7459 27.2618 12.7757Z" fill="#E2E8F0"/>
<path d="M125.071 46.9979C125.071 46.9979 85.5781 67.0261 79.566 68.1747C73.554 69.3232 66.4036 67.3158 66.6882 69.0335C66.9728 70.7513 70.4082 71.605 70.4082 71.605C70.4082 71.605 59.5378 73.3228 60.107 74.4713C60.6762 75.6198 67.8367 74.1816 67.8367 74.1816C67.8367 74.1816 58.9635 76.7582 60.9658 77.9017C62.9682 79.0451 69.2648 76.4736 69.2648 76.4736C69.2648 76.4736 59.8224 81.3371 62.399 81.6217C64.9755 81.9063 69.5545 79.3348 69.5545 79.3348C69.5545 79.3348 62.399 83.0548 65.2601 83.3394C68.1213 83.624 110.76 68.4593 125.071 59.8757" fill="white"/>
<path d="M65.3464 83.599H65.2346C64.7009 83.543 64.396 83.3601 64.3401 83.0552C64.2537 82.5978 64.889 81.9575 65.7733 81.307C64.6891 81.7277 63.5305 81.9231 62.3683 81.8812C61.977 81.8355 61.7534 81.6881 61.7076 81.4289C61.5653 80.6666 64.0657 79.0556 66.3882 77.7394C64.4214 78.3136 61.9973 78.7914 60.8386 78.1307C60.7063 78.0755 60.5948 77.9799 60.52 77.8577C60.4452 77.7354 60.4108 77.5926 60.4219 77.4497C60.5184 76.6467 62.5817 75.7066 64.5688 74.9849C62.4852 75.2441 60.2542 75.3305 59.8781 74.5885C59.8442 74.5234 59.8266 74.451 59.8266 74.3776C59.8266 74.3042 59.8442 74.2319 59.8781 74.1667C60.3863 73.1503 66.561 71.9967 69.3205 71.5342C68.2279 71.1226 66.6372 70.3145 66.4288 69.0796C66.4077 68.9755 66.4114 68.8678 66.4397 68.7654C66.4679 68.663 66.5199 68.5687 66.5915 68.4901C67.0997 67.926 68.6548 68.0175 71.023 68.1547C73.5233 68.297 76.6132 68.4748 79.51 67.9311C85.4153 66.8029 124.552 46.9728 124.943 46.7746C125.004 46.7442 125.074 46.7389 125.139 46.7598C125.204 46.7807 125.257 46.8262 125.289 46.8864C125.319 46.9464 125.324 47.0159 125.303 47.0797C125.282 47.1435 125.237 47.1964 125.177 47.2269C123.561 48.0451 85.583 67.2907 79.6065 68.4291C76.6691 68.9881 73.5081 68.8052 70.9671 68.6629C69.0715 68.5511 67.2826 68.4494 66.9421 68.8255C66.9225 68.8482 66.909 68.8755 66.9028 68.9048C66.8966 68.9341 66.8979 68.9645 66.9065 68.9932C67.12 70.2688 69.5238 71.1378 70.4386 71.3665C70.506 71.3699 70.5692 71.3999 70.6145 71.4499C70.6598 71.5 70.6833 71.5659 70.68 71.6333C70.6766 71.7007 70.6466 71.764 70.5965 71.8093C70.5465 71.8546 70.4805 71.8781 70.4131 71.8747C65.7326 72.6116 60.5337 73.7906 60.2999 74.4157C60.5997 74.9748 64.4011 74.6241 67.7502 73.9533C67.7835 73.9453 67.8182 73.9439 67.852 73.9493C67.8859 73.9546 67.9184 73.9666 67.9477 73.9846C67.977 74.0025 68.0024 74.026 68.0226 74.0538C68.0427 74.0816 68.0572 74.113 68.0652 74.1464C68.0733 74.1798 68.0746 74.2144 68.0692 74.2483C68.0639 74.2822 68.0519 74.3147 68.0339 74.3439C68.016 74.3732 67.9925 74.3986 67.9647 74.4188C67.937 74.439 67.9055 74.4535 67.8721 74.4615C64.5739 75.4169 60.9707 76.8653 60.8894 77.5412C60.8894 77.6072 60.9911 77.6784 61.0571 77.7191C62.6122 78.6084 67.4147 76.9771 69.1325 76.2707C69.194 76.2464 69.2625 76.2465 69.3239 76.2711C69.3853 76.2957 69.435 76.3428 69.4628 76.4028C69.4894 76.4624 69.4922 76.5298 69.4704 76.5913C69.4487 76.6528 69.4041 76.7036 69.3459 76.7331C65.9257 78.4966 62.2311 80.7581 62.1701 81.3629C62.2419 81.3827 62.3149 81.3979 62.3886 81.4086C64.3096 81.622 67.4706 80.133 68.7971 79.4622L69.3967 79.142C69.4561 79.1115 69.5251 79.1056 69.5889 79.1256C69.6526 79.1455 69.7059 79.1898 69.7372 79.2487C69.7534 79.2774 69.7638 79.309 69.7677 79.3417C69.7716 79.3743 69.769 79.4075 69.76 79.4391C69.751 79.4708 69.7358 79.5004 69.7154 79.5261C69.6949 79.5519 69.6695 79.5733 69.6407 79.5892C69.6 79.5892 69.3663 79.7468 69.0003 79.9348C66.627 81.2257 64.7264 82.5978 64.8026 82.984C64.8026 82.984 64.8941 83.0806 65.2498 83.1162H65.3769C66.9015 83.1162 77.3247 79.8027 90.787 74.7207C98.1458 71.9459 116.197 64.9276 124.943 59.6829C124.972 59.6621 125.004 59.6474 125.038 59.6398C125.073 59.6321 125.108 59.6316 125.143 59.6384C125.177 59.6452 125.21 59.6591 125.239 59.6792C125.268 59.6993 125.292 59.7251 125.31 59.7552C125.329 59.7852 125.341 59.8186 125.345 59.8535C125.35 59.8883 125.348 59.9238 125.338 59.9576C125.328 59.9914 125.312 60.0229 125.289 60.05C125.267 60.077 125.239 60.0992 125.208 60.1149C111.405 68.3681 69.3662 83.599 65.3464 83.599Z" fill="#1E293B"/>
<path d="M117.772 63.9263C117.772 63.9263 111.674 49.6204 112.238 49.4272C112.802 49.2341 124.435 41.606 125.406 42.1803C126.376 42.7545 129.979 53.8181 128.836 57.0604C127.693 60.3028 117.772 63.9263 117.772 63.9263Z" fill="#FA6360"/>
<path d="M119.297 63.9976C119.242 63.9974 119.189 63.9802 119.144 63.9484C119.1 63.9165 119.066 63.8715 119.048 63.8197C119.027 63.7537 119.033 63.682 119.064 63.6202C119.096 63.5585 119.15 63.5115 119.216 63.4894C119.302 63.4589 127.769 60.6028 131.113 56.3237C131.134 56.2969 131.161 56.2746 131.19 56.258C131.22 56.2414 131.253 56.2309 131.287 56.2271C131.321 56.2234 131.356 56.2264 131.389 56.236C131.422 56.2456 131.452 56.2616 131.479 56.2831C131.507 56.3035 131.53 56.3294 131.547 56.3592C131.565 56.3889 131.576 56.422 131.58 56.4562C131.585 56.4904 131.582 56.5252 131.572 56.5583C131.563 56.5915 131.546 56.6223 131.525 56.649C128.084 61.05 119.734 63.8705 119.384 63.9874C119.356 63.9957 119.326 63.9992 119.297 63.9976Z" fill="#1E293B"/>
<path d="M126.061 32.9104C125.999 32.9091 125.94 32.8856 125.894 32.8442C125.848 32.8028 125.818 32.7462 125.81 32.6847C125.802 32.6233 125.816 32.561 125.85 32.5091C125.884 32.4573 125.936 32.4194 125.995 32.4022C126.944 32.1192 127.817 31.6265 128.55 30.9606C129.283 30.2947 129.856 29.4726 130.229 28.5551C130.969 26.6799 131.146 24.6292 130.737 22.6549C130.452 20.7464 129.623 18.9605 128.348 17.5119C127.71 16.8107 126.921 16.2634 126.041 15.9113C125.161 15.5591 124.212 15.4114 123.266 15.4791L122.895 15.5299C122.618 15.5764 122.338 15.6018 122.057 15.6061C121.714 15.5896 121.374 15.5403 121.04 15.4588L120.822 15.413C119.03 15.0548 117.178 15.1549 115.435 15.704C113.693 16.2531 112.118 17.2334 110.856 18.5539C109.593 19.8745 108.685 21.4924 108.215 23.2577C107.745 25.023 107.729 26.8784 108.168 28.6517C108.29 29.1599 108.584 29.9679 109.209 30.0442C109.244 30.0473 109.277 30.0573 109.308 30.0738C109.338 30.0902 109.365 30.1127 109.386 30.1398C109.407 30.1669 109.423 30.1981 109.432 30.2315C109.441 30.2648 109.443 30.2997 109.438 30.3338C109.434 30.368 109.424 30.401 109.407 30.431C109.39 30.4611 109.368 30.4875 109.341 30.5088C109.314 30.5301 109.283 30.5458 109.25 30.555C109.217 30.5642 109.182 30.5668 109.148 30.5625C108.452 30.4761 107.924 29.846 107.659 28.7787C107.195 26.9173 107.209 24.9686 107.7 23.1141C108.191 21.2595 109.143 19.5593 110.468 18.1716C111.793 16.7839 113.447 15.7539 115.277 15.1774C117.107 14.6009 119.053 14.4967 120.934 14.8743L121.162 14.9201C121.469 14.9973 121.782 15.0433 122.097 15.0573C122.349 15.0506 122.601 15.0268 122.85 14.9861C122.982 14.9861 123.109 14.9455 123.241 14.9353C124.266 14.8529 125.296 15.0086 126.251 15.3903C127.206 15.7721 128.059 16.3695 128.745 17.1358C130.098 18.656 130.98 20.5362 131.286 22.5482C131.711 24.6246 131.518 26.7801 130.732 28.7483C130.33 29.7386 129.71 30.6258 128.918 31.3437C128.126 32.0616 127.183 32.5919 126.158 32.8952L126.061 32.9104Z" fill="#1E293B"/>
<path d="M122.092 15.3319C122.092 15.3319 124.735 13.3702 129.029 14.4171C133.323 15.464 134.945 23.2903 130.935 27.4881C130.935 27.4881 131.56 16.0485 122.092 15.3319Z" fill="#1E293B"/>
<path d="M137.374 39.8681H137.348C135.315 39.7429 133.367 39.0079 131.758 37.759C130.952 37.1226 130.303 36.3087 129.862 35.3805C129.421 34.4524 129.201 33.435 129.217 32.4076C129.218 32.3729 129.226 32.3387 129.24 32.3071C129.254 32.2754 129.275 32.2471 129.301 32.2237C129.326 32.2004 129.357 32.1826 129.389 32.1714C129.422 32.1602 129.457 32.1558 129.492 32.1586C129.526 32.1599 129.56 32.1681 129.591 32.1827C129.623 32.1972 129.651 32.2179 129.674 32.2435C129.697 32.269 129.715 32.299 129.726 32.3315C129.738 32.3641 129.743 32.3986 129.741 32.4331C129.726 33.3775 129.93 34.3126 130.335 35.1657C130.741 36.0188 131.337 36.7671 132.078 37.3525C133.32 38.3289 134.792 38.9695 136.352 39.2125C135.924 38.7323 135.651 38.1333 135.57 37.4948C135.487 36.5319 135.635 35.5631 136.002 34.6691C136.614 33.1507 137.361 31.6897 138.233 30.3037C139.498 28.1438 140.692 26.1059 140.957 23.7377C141.111 22.3698 140.929 20.9848 140.425 19.7037C139.921 18.4226 139.111 17.2844 138.066 16.3886C137.02 15.4927 135.772 14.8664 134.429 14.5644C133.085 14.2624 131.689 14.2939 130.361 14.6561C130.293 14.6735 130.222 14.6642 130.161 14.6301C130.101 14.596 130.056 14.5398 130.035 14.4732C130.026 14.4401 130.024 14.4056 130.028 14.3716C130.032 14.3375 130.043 14.3047 130.06 14.2749C130.077 14.2451 130.1 14.219 130.127 14.1981C130.154 14.1772 130.185 14.1618 130.218 14.153C131.63 13.7676 133.115 13.7339 134.543 14.0549C135.971 14.3759 137.299 15.0419 138.41 15.9946C139.521 16.9472 140.382 18.1576 140.917 19.5198C141.452 20.882 141.646 22.3546 141.48 23.8089C141.201 26.2838 139.92 28.464 138.685 30.5781C137.842 31.9338 137.12 33.3605 136.525 34.8419C136.18 35.6542 136.04 36.5393 136.119 37.4185C136.158 37.8317 136.304 38.2277 136.541 38.5679C136.779 38.9081 137.101 39.181 137.476 39.3599C137.532 39.3832 137.578 39.4251 137.607 39.4785C137.635 39.5319 137.645 39.5936 137.634 39.6532C137.622 39.7128 137.591 39.7667 137.544 39.8058C137.498 39.8449 137.44 39.8669 137.379 39.8681H137.374Z" fill="#1E293B"/>
<path d="M114.053 51.5516C113.988 51.563 113.921 51.5497 113.865 51.5143C113.809 51.4788 113.769 51.4239 113.752 51.3602C113.735 51.2965 113.742 51.2286 113.772 51.17C113.802 51.1114 113.854 51.0662 113.915 51.0434L124.359 44.6044C124.418 44.5686 124.49 44.5575 124.557 44.5737C124.625 44.5898 124.683 44.6319 124.72 44.6908C124.738 44.7201 124.751 44.7527 124.756 44.7868C124.762 44.8209 124.761 44.8558 124.753 44.8895C124.745 44.9231 124.73 44.9547 124.709 44.9826C124.689 45.0105 124.663 45.0339 124.633 45.0517L114.19 51.4906C114.151 51.5235 114.103 51.5447 114.053 51.5516Z" fill="#1E293B"/>
<path d="M0.448939 70.5431C0.386938 70.5431 0.327476 70.5185 0.283635 70.4747C0.239794 70.4308 0.215164 70.3714 0.215164 70.3094C0.215164 70.2474 0.239794 70.1879 0.283635 70.1441C0.327476 70.1002 0.386938 70.0756 0.448939 70.0756L16.2032 69.2167C16.2346 69.2131 16.2665 69.2162 16.2966 69.2259C16.3267 69.2355 16.3545 69.2514 16.378 69.2725C16.4016 69.2936 16.4204 69.3195 16.4331 69.3485C16.4459 69.3774 16.4524 69.4087 16.4522 69.4403C16.455 69.5015 16.4337 69.5613 16.3928 69.607C16.352 69.6526 16.2948 69.6803 16.2337 69.6843L0.47943 70.5431H0.448939Z" fill="#E2E8F0"/>
<path d="M38.2235 118.909C38.1786 118.91 38.1344 118.897 38.0965 118.873C38.0446 118.839 38.0082 118.786 37.9949 118.725C37.9816 118.664 37.9925 118.601 38.0253 118.548L45.7551 106.529C45.7707 106.501 45.7919 106.477 45.8174 106.457C45.8428 106.438 45.872 106.424 45.903 106.416C45.934 106.409 45.9663 106.407 45.9978 106.413C46.0293 106.418 46.0594 106.43 46.0863 106.447C46.1131 106.465 46.136 106.487 46.1537 106.514C46.1714 106.541 46.1834 106.571 46.189 106.602C46.1947 106.634 46.1938 106.666 46.1865 106.697C46.1791 106.728 46.1655 106.757 46.1464 106.783L38.4421 118.802C38.4189 118.838 38.3863 118.867 38.3478 118.886C38.3092 118.905 38.2662 118.913 38.2235 118.909Z" fill="#E2E8F0"/>
<path d="M9.0324 99.4495C8.99072 99.4491 8.9499 99.4376 8.91416 99.4162C8.87841 99.3948 8.84906 99.3641 8.82912 99.3275C8.81399 99.3009 8.80435 99.2716 8.80076 99.2412C8.79718 99.2108 8.79973 99.18 8.80826 99.1507C8.81679 99.1213 8.83112 99.0939 8.85042 99.0702C8.86971 99.0464 8.89358 99.0268 8.9206 99.0124L20.655 92.4261C20.7098 92.3967 20.7739 92.3898 20.8336 92.4069C20.8934 92.424 20.9442 92.4637 20.9752 92.5176C20.9906 92.5443 21.0006 92.5738 21.0046 92.6043C21.0087 92.6349 21.0066 92.6659 20.9986 92.6957C20.9905 92.7254 20.9767 92.7533 20.9579 92.7777C20.939 92.8021 20.9155 92.8225 20.8888 92.8378L9.15437 99.4444C9.11488 99.4569 9.07279 99.4586 9.0324 99.4495Z" fill="#E2E8F0"/>
<path d="M96.0317 8.1561C95.9941 8.156 95.957 8.1468 95.9237 8.12929C95.8904 8.11179 95.8617 8.08649 95.8403 8.05556C95.8188 8.02462 95.8052 7.98896 95.8005 7.9516C95.7957 7.91425 95.8001 7.87631 95.8132 7.84101L98.6744 0.136664C98.6989 0.0829196 98.7429 0.0404625 98.7975 0.0178308C98.8521 -0.00480093 98.9132 -0.00592851 98.9686 0.0146757C99.0239 0.0352798 99.0695 0.076087 99.096 0.12889C99.1225 0.181692 99.128 0.242573 99.1114 0.299288L96.2503 8.02397C96.2311 8.06523 96.2001 8.09984 96.1612 8.12338C96.1222 8.14691 96.0772 8.15831 96.0317 8.1561Z" fill="#E2E8F0"/>
<path d="M139.244 54.8041C139.189 54.8048 139.136 54.7856 139.094 54.7502C139.052 54.7147 139.024 54.6653 139.016 54.611C139.01 54.5806 139.011 54.5495 139.018 54.5195C139.025 54.4895 139.038 54.4612 139.056 54.4362C139.074 54.4111 139.097 54.3899 139.123 54.3737C139.149 54.3575 139.178 54.3466 139.209 54.3416L151.512 52.3088C151.573 52.2999 151.636 52.3151 151.686 52.3511C151.736 52.3871 151.77 52.4412 151.782 52.5019C151.787 52.5323 151.786 52.5634 151.779 52.5934C151.772 52.6234 151.759 52.6517 151.741 52.6768C151.723 52.7018 151.7 52.723 151.674 52.7392C151.648 52.7555 151.619 52.7664 151.589 52.7713L139.28 54.7787L139.244 54.8041Z" fill="#E2E8F0"/>
<path d="M138.96 105.746C138.924 105.747 138.889 105.739 138.857 105.723C138.825 105.707 138.798 105.684 138.777 105.655L131.047 95.9278C131.009 95.8783 130.993 95.8161 131 95.7544C131.008 95.6927 131.039 95.6365 131.088 95.5975C131.111 95.5781 131.138 95.5637 131.167 95.555C131.197 95.5463 131.227 95.5435 131.258 95.5468C131.288 95.5501 131.317 95.5595 131.344 95.5743C131.371 95.5891 131.394 95.6091 131.413 95.6331L139.143 105.365C139.162 105.389 139.176 105.417 139.184 105.447C139.193 105.477 139.195 105.508 139.191 105.539C139.188 105.57 139.178 105.599 139.162 105.626C139.147 105.653 139.126 105.677 139.102 105.695C139.061 105.727 139.011 105.745 138.96 105.746Z" fill="#E2E8F0"/>
<path d="M18.6629 23.1226C18.6069 23.1232 18.5527 23.1033 18.5104 23.0667L12.9863 18.3201C12.9437 18.2756 12.9199 18.2165 12.9199 18.1549C12.9199 18.0934 12.9437 18.0342 12.9863 17.9897C13.0058 17.9657 13.0301 17.9459 13.0575 17.9316C13.085 17.9172 13.1151 17.9086 13.146 17.9062C13.1769 17.9038 13.2079 17.9078 13.2372 17.9178C13.2666 17.9277 13.2936 17.9436 13.3166 17.9643L18.8407 22.7109C18.8648 22.7305 18.8846 22.7548 18.8989 22.7822C18.9133 22.8097 18.9219 22.8398 18.9243 22.8707C18.9266 22.9016 18.9227 22.9326 18.9127 22.9619C18.9027 22.9913 18.8869 23.0183 18.8662 23.0413C18.8421 23.0711 18.8107 23.0943 18.7751 23.1085C18.7396 23.1228 18.7009 23.1276 18.6629 23.1226Z" fill="#E2E8F0"/>
<path d="M115.923 82.0081C115.88 82.0083 115.838 81.9978 115.801 81.9776C115.772 81.9622 115.746 81.941 115.725 81.9155C115.704 81.8899 115.688 81.8604 115.679 81.8287C115.669 81.797 115.666 81.7637 115.67 81.7308C115.673 81.6979 115.683 81.6661 115.699 81.6371L121.233 71.5239C121.26 71.4744 121.303 71.4354 121.355 71.4133C121.406 71.3911 121.464 71.3871 121.518 71.4019C121.573 71.4148 121.621 71.446 121.655 71.4905C121.69 71.5349 121.708 71.5898 121.706 71.6459V80.6106C121.706 80.6779 121.679 80.7426 121.632 80.7902C121.584 80.8379 121.519 80.8647 121.452 80.8647C121.385 80.8647 121.32 80.8379 121.272 80.7902C121.225 80.7426 121.198 80.6779 121.198 80.6106V72.6369L116.116 81.8811C116.096 81.916 116.068 81.9457 116.035 81.9678C116.001 81.9899 115.963 82.0037 115.923 82.0081Z" fill="white"/>
</svg>
